<svg width="121" height="120" viewBox="0 0 121 120" fill="none" xmlns="http://www.w3.org/2000/svg">
<path d="M65.0486 77.7807H29.4991C20.6551 77.7807 14.3176 69.2496 16.8703 60.7802L19.5042 52.0366C19.9175 50.6697 20.1298 49.2446 20.1298 47.8156V39.0605C20.1298 24.0682 32.2835 11.9146 47.2757 11.9146C62.268 11.9146 74.4217 24.0682 74.4217 39.0605V47.8156C74.4217 49.2446 74.6303 50.6697 75.0435 52.0366L77.6774 60.7802C80.2302 69.2496 73.8927 77.7807 65.0486 77.7807Z" fill="#333643"/>
<path d="M90.5186 104.646V113.564C90.5186 114.634 89.6536 115.499 88.5838 115.499H5.96416C4.89438 115.499 4.0293 114.634 4.0293 113.564V104.646C4.0293 87.2328 18.1449 73.1133 35.5624 73.1133L58.9893 73.1171C76.4031 73.1171 90.5186 87.2328 90.5186 104.646Z" fill="#70C1F9"/>
<path d="M58.9893 73.1171V85.9545H35.5586V73.1171C36.7558 71.2557 37.393 69.0892 37.393 66.8761V59.4534H57.1548V66.8761C57.1548 69.0892 57.792 71.2557 58.9893 73.1171Z" fill="#FFCBBA"/>
<path d="M57.1548 59.4534V66.7139C54.2469 68.4016 50.8714 69.3671 47.2721 69.3671C43.6726 69.3671 40.2973 68.4016 37.3931 66.7139V59.4534H57.1548Z" fill="#EFB7A8"/>
<path d="M58.9893 73.1171V115.499H35.5586V73.1171C35.5586 83.4132 58.9893 83.4132 58.9893 73.1171Z" fill="#E9E9FF"/>
<path d="M22.4083 45.0353V38.815C22.4083 25.1042 33.563 13.9495 47.274 13.9495C60.985 13.9495 72.1397 25.1042 72.1397 38.815V45.0353H75.1437V38.815C75.1437 23.4477 62.6414 10.9455 47.274 10.9455C31.9066 10.9455 19.4043 23.4477 19.4043 38.815V45.0353H22.4083Z" fill="#E9E9FF"/>
<path d="M65.5857 32.9798V49.5381C65.5857 59.6524 57.3865 67.8516 47.2722 67.8516C37.16 67.8516 28.9624 59.654 28.9624 49.5418V38.9659C28.9624 36.5759 30.8998 34.6385 33.2898 34.6385H44.0907C45.3193 34.6385 46.5131 34.2301 47.4842 33.4775L52.212 29.8134C53.1831 29.0608 54.3768 28.6524 55.6054 28.6524H61.2583C63.6483 28.6524 65.5857 30.5898 65.5857 32.9798Z" fill="#FFCBBA"/>
<path d="M63.5639 60.7086H53.5825V58.1983H63.5639C65.5362 58.1983 67.1408 56.5937 67.1408 54.6214V48.252H69.6511V54.6214C69.6511 57.9779 66.9203 60.7086 63.5639 60.7086Z" fill="#E9E9FF"/>
<path d="M75.1437 44.3014V46.7264C75.1437 49.4438 72.9408 51.6467 70.2234 51.6467L70.2234 39.3811C72.9408 39.3811 75.1437 41.584 75.1437 44.3014Z" fill="#FDC72E"/>
<path d="M71.9075 41.035V49.9964C71.9075 52.0041 70.2752 53.6196 68.2676 53.6196H65.1338C65.4275 52.3141 65.5909 50.9433 65.5909 49.5389V37.4118H68.2676C70.2752 37.4118 71.9075 39.0281 71.9075 41.035Z" fill="#CCA233"/>
<path d="M19.4043 44.3014V46.7264C19.4043 49.4438 21.6072 51.6467 24.3246 51.6467L24.3246 39.3811C21.6072 39.3811 19.4043 41.584 19.4043 44.3014Z" fill="#FDC72E"/>
<path d="M29.4199 53.6196H26.2698C24.2621 53.6196 22.6299 52.0041 22.6299 49.9964V41.035C22.6299 39.0281 24.2621 37.4118 26.2698 37.4118H29.2569C29.0609 37.9012 28.9632 38.424 28.9632 38.9628V49.5389C28.9632 50.9433 29.1262 52.3141 29.4199 53.6196Z" fill="#CCA233"/>
<path d="M55.7066 57.8585V60.5966C55.7066 61.0484 55.3396 61.4154 54.8878 61.4154H48.7395C48.284 61.4154 47.917 61.0484 47.917 60.5966V57.8585C47.917 57.4067 48.284 57.0397 48.7395 57.0397H54.8878C55.3396 57.0397 55.7066 57.4067 55.7066 57.8585Z" fill="#CCA233"/>
<path d="M39.2793 46.7876C40.177 46.7876 40.9046 46.06 40.9046 45.1623C40.9046 44.2647 40.177 43.537 39.2793 43.537C38.3817 43.537 37.6541 44.2647 37.6541 45.1623C37.6541 46.06 38.3817 46.7876 39.2793 46.7876Z" fill="#333643"/>
<path d="M54.867 46.7876C55.7646 46.7876 56.4923 46.06 56.4923 45.1623C56.4923 44.2647 55.7646 43.537 54.867 43.537C53.9694 43.537 53.2417 44.2647 53.2417 45.1623C53.2417 46.06 53.9694 46.7876 54.867 46.7876Z" fill="#333643"/>
<path d="M47.4365 48.9599V52.5598C47.4365 52.9409 47.1317 53.2609 46.7353 53.2609C46.3542 53.2609 46.0491 52.9409 46.0491 52.5598V48.9599C46.0491 48.5788 46.3542 48.2587 46.7353 48.2587C47.1317 48.2587 47.4365 48.5788 47.4365 48.9599Z" fill="#EFB7A8"/>
<path d="M58.2759 41.5815L52.2617 41.5809C51.8806 41.5808 51.5604 41.2757 51.5603 40.879C51.5602 40.4976 51.8803 40.1922 52.2614 40.1923L58.2757 40.1929C58.6568 40.193 58.977 40.4985 58.9771 40.8799C58.9771 41.2766 58.6571 41.5816 58.2759 41.5815Z" fill="#333643"/>
<path d="M42.2864 41.5815L36.2722 41.5809C35.8911 41.5808 35.5709 41.2757 35.5708 40.879C35.5707 40.4976 35.8908 40.1922 36.2719 40.1923L42.2862 40.1929C42.6673 40.193 42.9875 40.4985 42.9876 40.8799C42.9876 41.2766 42.6676 41.5816 42.2864 41.5815Z" fill="#333643"/>
<path d="M28.9622 98.0499C28.9622 99.1761 28.0481 100.09 26.9219 100.09H12.8357C11.7096 100.09 10.7954 99.1761 10.7954 98.0499C10.7954 96.9237 11.7096 96.0096 12.8357 96.0096H26.9219C28.0481 96.0096 28.9622 96.9237 28.9622 98.0499Z" fill="#E9E9FF"/>
<path d="M116.971 7.42812V30.2771C116.971 31.5064 116.219 32.5501 115.146 32.9796C114.805 33.1258 114.434 33.204 114.044 33.204H88.4046L83.7509 37.8479C83.1364 38.4624 82.0924 38.0332 82.0924 37.165V33.204H80.0145C78.3948 33.204 77.0876 31.8965 77.0876 30.2771V7.42812C77.0876 5.80869 78.3948 4.50128 80.0145 4.50128H114.044C115.653 4.50128 116.971 5.80869 116.971 7.42812Z" fill="#CCA233"/>
<path d="M82.6711 23.0659C82.5393 22.9389 82.4734 22.7742 82.4734 22.5722C82.4734 22.116 82.6073 21.6946 82.8752 21.3083C83.1431 20.9221 83.4677 20.5819 83.8497 20.2877C84.2312 19.9939 84.7337 19.6448 85.3573 19.2412C85.8926 18.8988 86.3185 18.609 86.634 18.3722C86.9501 18.1351 87.2137 17.8763 87.4243 17.5953C87.6348 17.3143 87.7404 17.0159 87.7404 16.6998C87.7404 16.1997 87.5759 15.8024 87.2464 15.5083C86.9174 15.2145 86.3887 15.0671 85.66 15.0671C84.8698 15.0671 84.1192 15.2252 83.4083 15.5413C83.3204 15.5852 83.2374 15.6072 83.1581 15.6072C83.0177 15.6072 82.8993 15.5589 82.8029 15.4622C82.7059 15.3658 82.6582 15.2429 82.6582 15.0936C82.6582 14.8743 82.7547 14.7117 82.9475 14.6064C83.8428 14.1588 84.8173 13.9348 85.8706 13.9348C86.432 13.9348 86.9437 14.0468 87.4044 14.2707C87.8652 14.4944 88.2295 14.8084 88.4974 15.212C88.7652 15.616 88.8992 16.081 88.8992 16.6077C88.8992 17.1257 88.7476 17.6063 88.4449 18.0494C88.1416 18.4927 87.78 18.8811 87.3584 19.2146C86.9373 19.5484 86.3887 19.9347 85.7125 20.3735C85.098 20.786 84.6351 21.1174 84.3233 21.3676C84.0121 21.6177 83.7945 21.8744 83.6719 22.1377H88.2536C88.4116 22.1377 88.5456 22.1926 88.6554 22.3022C88.7652 22.4123 88.8199 22.5459 88.8199 22.704C88.8199 22.8618 88.7652 22.9936 88.6554 23.0988C88.5456 23.2041 88.4116 23.2569 88.2536 23.2569H83.1715C82.9695 23.2569 82.8029 23.1934 82.6711 23.0659Z" fill="#E9E9FF"/>
<path d="M95.1665 23.1516C95.0523 23.0375 94.995 22.8971 94.995 22.7303V20.9395H90.9796C90.769 20.9395 90.589 20.8672 90.4395 20.7223C90.2901 20.5776 90.2156 20.3997 90.2156 20.1892V20.0705C90.2156 19.8862 90.2686 19.7282 90.3736 19.5966L94.508 14.3168C94.5782 14.2204 94.6725 14.1435 94.7914 14.0865C94.9098 14.0294 95.0347 14.0007 95.1665 14.0007H95.4295C95.6577 14.0007 95.842 14.0731 95.9829 14.218C96.1233 14.3629 96.1935 14.5451 96.1935 14.7644V19.8731H97.1943C97.3432 19.8731 97.4707 19.9259 97.5757 20.0311C97.6813 20.1364 97.7338 20.2637 97.7338 20.4129C97.7338 20.5623 97.6813 20.6874 97.5757 20.7882C97.4707 20.8891 97.3432 20.9395 97.1943 20.9395H96.1935V22.7303C96.1935 22.8971 96.134 23.0375 96.0156 23.1516C95.8972 23.2655 95.7542 23.3228 95.5875 23.3228C95.4209 23.3228 95.2806 23.2655 95.1665 23.1516ZM91.4928 19.8731H94.995V15.357L91.4928 19.8731Z" fill="#E9E9FF"/>
<path d="M98.9382 24.3498C98.8375 24.2443 98.7871 24.117 98.7871 23.9678C98.7871 23.9153 98.8 23.8494 98.8262 23.7704L102.316 13.5662C102.35 13.461 102.412 13.3734 102.5 13.3029C102.588 13.2327 102.698 13.1976 102.829 13.1976C102.987 13.1976 103.117 13.2501 103.217 13.3557C103.318 13.461 103.369 13.5882 103.369 13.7374C103.369 13.7902 103.356 13.8558 103.329 13.9348L99.8404 24.139C99.805 24.2443 99.7434 24.3321 99.6561 24.4023C99.5682 24.4725 99.4584 24.5076 99.3266 24.5076C99.1686 24.5076 99.0389 24.4551 98.9382 24.3498Z" fill="#E9E9FF"/>
<path d="M106.726 23.1516C106.612 23.0375 106.555 22.8971 106.555 22.7302C106.555 22.6249 106.582 22.5194 106.634 22.4141L110.255 15.212H105.475C105.317 15.212 105.183 15.1574 105.074 15.0475C104.964 14.9377 104.91 14.8038 104.91 14.646C104.91 14.488 104.964 14.3519 105.074 14.2378C105.183 14.1236 105.317 14.0666 105.475 14.0666H110.847C111.058 14.0666 111.234 14.1325 111.374 14.264C111.514 14.3958 111.585 14.5627 111.585 14.7644C111.585 14.9575 111.541 15.1507 111.453 15.3438L107.714 22.9935C107.661 23.0902 107.582 23.1693 107.477 23.2306C107.371 23.2919 107.262 23.3228 107.147 23.3228C106.981 23.3228 106.841 23.2654 106.726 23.1516Z" fill="#E9E9FF"/>
<g opacity="0.2">
<path d="M107.068 33.204H91.9854L82.3364 4.50128H97.4096L107.068 33.204Z" fill="white"/>
<path d="M115.146 32.9796C114.805 33.1258 114.434 33.204 114.044 33.204H110.941L101.283 4.50128H105.576L115.146 32.9796Z" fill="white"/>
</g>
</svg>
