<svg width="117" height="116" viewBox="0 0 117 116" fill="none" xmlns="http://www.w3.org/2000/svg">
<g clip-path="url(#clip0_75_632)">
<path d="M61.8219 113.462C92.0198 113.462 116.5 88.9814 116.5 58.7836C116.5 28.5857 92.0198 4.10547 61.8219 4.10547C31.624 4.10547 7.1438 28.5857 7.1438 58.7836C7.1438 88.9814 31.624 113.462 61.8219 113.462Z" fill="url(#paint0_linear_75_632)"/>
<path d="M100.322 30.0242C98.4459 28.6461 96.4566 27.3819 94.3718 26.234C93.2236 24.1489 91.9597 22.1596 90.5813 20.2834C82.9278 9.86456 72.7139 4.12665 61.822 4.12665C50.9298 4.12665 40.7161 9.86456 33.0626 20.2834C31.6843 22.1596 30.4203 24.1492 29.2724 26.234C27.1873 27.3819 25.198 28.6459 23.3218 30.0242C12.9029 37.6779 7.16504 47.8914 7.16504 58.7836C7.16504 69.6758 12.9029 79.8894 23.3218 87.5429C25.198 88.9213 27.1875 90.1852 29.2724 91.3332C30.4203 93.418 31.6843 95.4075 33.0626 97.2838C40.7163 107.703 50.9298 113.441 61.822 113.441C72.7139 113.441 82.9278 107.703 90.5813 97.2838C91.9597 95.4075 93.2236 93.418 94.3718 91.3329C96.4566 90.185 98.4461 88.9211 100.322 87.5427C110.741 79.8892 116.479 69.6755 116.479 58.7833C116.479 47.8912 110.741 37.6779 100.322 30.0242ZM61.822 110.868C58.8203 110.868 55.6387 106.396 53.1233 98.7665C55.9742 99.1018 58.8801 99.2755 61.822 99.2755C64.7638 99.2755 67.6697 99.1018 70.5206 98.7665C68.0052 106.396 64.8236 110.868 61.822 110.868ZM61.822 96.7026C58.5699 96.7026 55.3874 96.4824 52.2986 96.0651C50.5845 90.0042 49.3399 82.7285 48.6278 74.785C52.8916 75.0898 57.3153 75.2469 61.822 75.2469C66.3287 75.2469 70.7524 75.0898 75.0162 74.785C74.3043 82.7285 73.0596 90.004 71.3456 96.0651C68.2568 96.4824 65.0743 96.7026 61.822 96.7026ZM61.822 6.6998C64.8236 6.6998 68.0052 11.1713 70.5206 18.8009C67.6697 18.4654 64.7638 18.2916 61.822 18.2916C58.8801 18.2916 55.9742 18.4654 53.1233 18.8009C55.6387 11.171 58.8203 6.6998 61.822 6.6998ZM61.822 20.8648C65.0743 20.8648 68.2568 21.0849 71.3456 21.5023C73.0596 27.5634 74.3043 34.8389 75.0162 42.7824C70.7524 42.4776 66.3287 42.3204 61.822 42.3204C57.3153 42.3204 52.8918 42.4776 48.6278 42.7824C49.3397 34.8389 50.5843 27.5634 52.2986 21.5023C55.3874 21.0849 58.5699 20.8648 61.822 20.8648ZM47.9315 58.7836C47.9315 54.1959 48.0969 49.7001 48.4158 45.3774C52.7385 45.0585 57.2341 44.8931 61.822 44.8931C66.4097 44.8931 70.9054 45.0585 75.2282 45.3774C75.547 49.7001 75.7124 54.1957 75.7124 58.7836C75.7124 63.3715 75.547 67.8671 75.2282 72.1895C70.9054 72.5084 66.4097 72.6738 61.822 72.6738C57.2343 72.6738 52.7385 72.5084 48.4158 72.1895C48.0969 67.8673 47.9315 63.3715 47.9315 58.7836ZM45.8206 71.9778C37.8771 71.2659 30.6014 70.0212 24.5405 68.307C24.1233 65.2182 23.9029 62.0357 23.9029 58.7836C23.9029 55.5315 24.1231 52.349 24.5405 49.2602C30.6014 47.5461 37.8771 46.3015 45.8206 45.5894C45.5158 49.8532 45.3586 54.2769 45.3586 58.7836C45.3586 63.2903 45.5156 67.714 45.8206 71.9778ZM77.8236 45.5896C85.7671 46.3015 93.0426 47.5461 99.1037 49.2604C99.5208 52.3492 99.7412 55.5317 99.7412 58.7838C99.7412 62.0359 99.5211 65.2184 99.1037 68.3072C93.0426 70.0215 85.7671 71.2659 77.8236 71.978C78.1284 67.7142 78.2856 63.2905 78.2856 58.7838C78.2856 54.2769 78.1284 49.8534 77.8236 45.5896ZM77.6173 42.9885C76.9397 35.2024 75.7586 28.0226 74.1328 21.9377C80.8426 23.1261 87.0474 25.2628 92.4642 28.1416C95.343 33.5584 97.4797 39.763 98.6681 46.4728C92.5831 44.8472 85.4034 43.666 77.6173 42.9885ZM46.0266 42.9885C38.2405 43.666 31.0608 44.8472 24.9758 46.4728C26.1642 39.763 28.3009 33.5584 31.1798 28.1416C36.5965 25.2628 42.8012 23.1261 49.511 21.9377C47.8854 28.0226 46.7044 35.2024 46.0266 42.9885ZM21.839 67.4822C14.2094 64.9668 9.73797 61.7852 9.73797 58.7836C9.73797 55.7819 14.2092 52.6003 21.839 50.0849C21.5038 52.9358 21.3298 55.8417 21.3298 58.7836C21.3298 61.7254 21.5038 64.6313 21.839 67.4822ZM46.0266 74.5789C46.7042 82.365 47.8854 89.5447 49.511 95.6297C42.8012 94.4413 36.5965 92.3046 31.1798 89.4258C28.3009 84.009 26.1642 77.8044 24.9758 71.0946C31.061 72.7202 38.2408 73.9013 46.0266 74.5789ZM77.6173 74.5789C85.4034 73.9013 92.5831 72.7202 98.6681 71.0946C97.4797 77.8044 95.343 84.009 92.4642 89.4258C87.0474 92.3048 80.8428 94.4413 74.1328 95.6297C75.7586 89.5447 76.9397 82.3648 77.6173 74.5789ZM101.805 50.0852C109.435 52.6005 113.906 55.7819 113.906 58.7838C113.906 61.7855 109.435 64.9671 101.805 67.4824C102.14 64.6316 102.314 61.7257 102.314 58.7838C102.314 55.8417 102.14 52.936 101.805 50.0852ZM113.298 52.989C110.781 50.8421 106.79 48.9122 101.416 47.2609C100.481 41.3363 98.8244 35.6918 96.506 30.5219C105.303 36.2502 111.422 44.1166 113.298 52.989ZM90.0841 24.0998C84.9142 21.7814 79.2695 20.1251 73.3449 19.1891C71.6936 13.8156 69.7636 9.82475 67.6167 7.3071C76.4891 9.18402 84.3555 15.3022 90.0841 24.0998ZM56.0274 7.30732C53.8805 9.82498 51.9506 13.8158 50.2993 19.1894C44.3747 20.1251 38.73 21.7814 33.56 24.0998C39.2884 15.3022 47.1548 9.18402 56.0274 7.30732ZM27.138 30.5217C24.8198 35.6916 23.1633 41.3363 22.2275 47.2609C16.854 48.9122 12.8631 50.8421 10.3455 52.989C12.2222 44.1166 18.3406 36.2502 27.138 30.5217ZM10.3455 64.5783C12.8631 66.7253 16.854 68.6552 22.2275 70.3065C23.1633 76.2311 24.8198 81.8758 27.138 87.0457C18.3406 81.3171 12.2222 73.4508 10.3455 64.5783ZM33.5598 93.4676C38.7298 95.786 44.3744 97.4423 50.2991 98.378C51.9504 103.752 53.8803 107.742 56.0272 110.26C47.1548 108.383 39.2884 102.265 33.5598 93.4676ZM67.6165 110.26C69.7634 107.742 71.6933 103.752 73.3446 98.378C79.2693 97.4423 84.9139 95.7858 90.0839 93.4676C84.3555 102.265 76.4891 108.383 67.6165 110.26ZM96.506 87.0457C98.8244 81.8758 100.481 76.2311 101.416 70.3067C106.79 68.6554 110.781 66.7255 113.298 64.5786C111.422 73.4508 105.303 81.3171 96.506 87.0457Z" fill="url(#paint1_linear_75_632)"/>
<path d="M43.0165 7.42696C29.3267 12.4413 18.2021 22.7738 12.1417 35.922C11.4234 37.4803 11.0679 39.1812 11.0679 40.8971C11.0679 44.093 12.3375 47.1579 14.5972 49.4178L15.7147 50.5353C20.7227 55.5433 27.5149 58.3566 34.5972 58.3566C35.6553 58.3566 36.513 57.4989 36.513 56.4411C36.513 55.3829 35.6553 54.5252 34.5972 54.5252H28.7083C25.9923 54.5252 23.7903 52.3235 23.7903 49.6073C23.7903 46.8913 25.9921 44.6893 28.7083 44.6893H33.3078C38.823 44.6893 44.1124 42.4985 48.0121 38.5987L55.1138 31.497C56.6602 29.9505 58.7577 29.0817 60.9447 29.0817C64.1085 29.0817 66.9933 27.2716 68.3696 24.4228C70.0564 20.9314 67.5128 16.8775 63.6354 16.8775H54.4726C51.7786 16.8775 49.5947 14.6938 49.5947 11.9996C49.5944 8.60015 46.209 6.25763 43.0165 7.42696Z" fill="url(#paint2_linear_75_632)"/>
<path d="M115.227 47.0025C114.472 43.5641 111.397 41.1322 107.877 41.1322H100.17H96.0493C89.0463 41.1322 83.3694 46.8092 83.3694 53.8121V55.3549C83.3694 61.5059 88.3558 66.4923 94.5068 66.4923C97.6342 66.4923 100.17 69.0277 100.17 72.1552V86.9426C100.17 90.7961 105.173 92.3312 107.315 89.1275C111.765 82.4701 114.792 74.7795 115.962 66.4923C116.316 63.9749 116.5 61.3997 116.5 58.7838C116.5 54.7383 116.06 50.7968 115.227 47.0025Z" fill="url(#paint3_linear_75_632)"/>
<path d="M86.2811 9.87207C89.969 17.2322 92.0476 25.5384 92.0476 34.3312C92.0476 64.529 67.5675 89.0093 37.3696 89.0093C28.5768 89.0093 20.2705 86.9306 12.9104 83.2428C21.8879 101.16 40.417 113.462 61.8219 113.462C92.0197 113.462 116.5 88.9816 116.5 58.7836C116.5 37.3786 104.198 18.8496 86.2811 9.87207Z" fill="url(#paint4_linear_75_632)"/>
<path d="M89.4187 36.1895C86.6772 33.448 79.8624 35.7152 66.8886 47.8329L59.3069 46.8986L56.8577 44.3718C55.5488 43.0628 53.4266 43.0628 52.1177 44.3718C51.8047 44.6848 51.57 45.0451 51.4076 45.429L49.4576 43.4672C48.1486 42.1582 46.0265 42.1582 44.7175 43.4672C44.2797 43.9051 43.992 44.4346 43.8469 44.9934L40.9146 44.632C40.2154 44.5458 39.4129 44.8656 38.8066 45.4722L33.7876 50.4911C33.2579 51.0209 33.2604 51.784 33.7928 52.0132L48.897 66.7732C44.4935 71.8959 40.4701 76.9614 37.3811 81.3269L29.862 80.3063C29.56 80.2654 29.2111 80.4025 28.9477 80.6659L26.6054 83.0082C26.1532 83.4604 26.1127 84.1091 26.5206 84.3711L32.1675 89.8506C31.2195 91.9243 30.9581 93.3934 31.5866 94.0219L49.6692 112.104C53.5777 112.992 57.6445 113.462 61.8216 113.462C90.5662 113.462 114.129 91.2808 116.33 63.1015L89.4187 36.1895Z" fill="url(#paint5_linear_75_632)"/>
<path d="M47.0876 49.1888C48.9387 49.1888 50.4393 47.6882 50.4393 45.8371C50.4393 43.986 48.9387 42.4854 47.0876 42.4854C45.2365 42.4854 43.7358 43.986 43.7358 45.8371C43.7358 47.6882 45.2365 49.1888 47.0876 49.1888Z" fill="url(#paint6_linear_75_632)"/>
<path d="M47.0877 48.6345C48.6327 48.6345 49.8851 47.382 49.8851 45.837C49.8851 44.2921 48.6327 43.0396 47.0877 43.0396C45.5427 43.0396 44.2903 44.2921 44.2903 45.837C44.2903 47.382 45.5427 48.6345 47.0877 48.6345Z" fill="url(#paint7_linear_75_632)"/>
<path d="M50.2679 44.7772C50.1086 45.2559 49.8386 45.7061 49.4577 46.0873C48.1487 47.3963 46.0266 47.3963 44.7176 46.0873C44.3364 45.7061 44.0666 45.2559 43.9074 44.7772C43.5198 45.9428 43.7898 47.2793 44.7176 48.2071C46.0266 49.5161 48.1487 49.5161 49.4577 48.2071C50.3854 47.2793 50.6554 45.9431 50.2679 44.7772Z" fill="url(#paint8_linear_75_632)"/>
<path d="M47.0876 49.1888C48.9387 49.1888 50.4393 47.6882 50.4393 45.8371C50.4393 43.986 48.9387 42.4854 47.0876 42.4854C45.2365 42.4854 43.7358 43.986 43.7358 45.8371C43.7358 47.6882 45.2365 49.1888 47.0876 49.1888Z" fill="url(#paint9_linear_75_632)"/>
<path d="M56.8578 49.1116C55.5488 50.4206 53.4267 50.4206 52.1177 49.1116C50.8087 47.8027 50.8087 45.6805 52.1177 44.3716C53.4267 43.0626 55.5488 43.0626 56.8578 44.3716C58.1666 45.6805 58.1666 47.8029 56.8578 49.1116Z" fill="url(#paint10_linear_75_632)"/>
<path d="M54.4878 49.5393C56.0328 49.5393 57.2853 48.2869 57.2853 46.7419C57.2853 45.1969 56.0328 43.9445 54.4878 43.9445C52.9429 43.9445 51.6904 45.1969 51.6904 46.7419C51.6904 48.2869 52.9429 49.5393 54.4878 49.5393Z" fill="url(#paint11_linear_75_632)"/>
<path d="M57.668 45.6819C57.5088 46.1607 57.2388 46.6109 56.8578 46.9921C55.5488 48.301 53.4267 48.301 52.1177 46.9921C51.7365 46.6109 51.4668 46.1607 51.3076 45.6819C50.92 46.8476 51.19 48.1841 52.1177 49.1119C53.4267 50.4209 55.5488 50.4209 56.8578 49.1119C57.7856 48.1839 58.0556 46.8476 57.668 45.6819Z" fill="url(#paint12_linear_75_632)"/>
<path d="M56.8578 49.1116C55.5488 50.4206 53.4267 50.4206 52.1177 49.1116C50.8087 47.8027 50.8087 45.6805 52.1177 44.3716C53.4267 43.0626 55.5488 43.0626 56.8578 44.3716C58.1666 45.6805 58.1666 47.8029 56.8578 49.1116Z" fill="url(#paint13_linear_75_632)"/>
<path d="M79.7711 81.8726C81.6223 81.8726 83.1229 80.372 83.1229 78.5209C83.1229 76.6697 81.6223 75.1691 79.7711 75.1691C77.92 75.1691 76.4194 76.6697 76.4194 78.5209C76.4194 80.372 77.92 81.8726 79.7711 81.8726Z" fill="url(#paint14_linear_75_632)"/>
<path d="M79.7713 81.3183C81.3163 81.3183 82.5687 80.0658 82.5687 78.5209C82.5687 76.9759 81.3163 75.7234 79.7713 75.7234C78.2263 75.7234 76.9739 76.9759 76.9739 78.5209C76.9739 80.0658 78.2263 81.3183 79.7713 81.3183Z" fill="url(#paint15_linear_75_632)"/>
<path d="M80.8311 75.3404C80.3523 75.4996 79.9022 75.7696 79.521 76.1506C78.212 77.4596 78.212 79.5817 79.521 80.8907C79.9022 81.2719 80.3523 81.5416 80.8311 81.7009C79.6654 82.0884 78.3289 81.8185 77.4012 80.8907C76.0922 79.5817 76.0922 77.4596 77.4012 76.1506C78.3289 75.2228 79.6652 74.9531 80.8311 75.3404Z" fill="url(#paint16_linear_75_632)"/>
<path d="M79.7711 81.8726C81.6223 81.8726 83.1229 80.372 83.1229 78.5209C83.1229 76.6697 81.6223 75.1691 79.7711 75.1691C77.92 75.1691 76.4194 76.6697 76.4194 78.5209C76.4194 80.372 77.92 81.8726 79.7711 81.8726Z" fill="url(#paint17_linear_75_632)"/>
<path d="M76.4966 68.7507C75.1876 70.0597 75.1876 72.1818 76.4966 73.4908C77.8056 74.7998 79.9277 74.7998 81.2367 73.4908C82.5457 72.1818 82.5457 70.0597 81.2367 68.7507C79.9277 67.4417 77.8056 67.4417 76.4966 68.7507Z" fill="url(#paint18_linear_75_632)"/>
<path d="M78.8668 73.9181C80.4117 73.9181 81.6642 72.6657 81.6642 71.1207C81.6642 69.5758 80.4117 68.3233 78.8668 68.3233C77.3218 68.3233 76.0693 69.5758 76.0693 71.1207C76.0693 72.6657 77.3218 73.9181 78.8668 73.9181Z" fill="url(#paint19_linear_75_632)"/>
<path d="M79.9266 67.9403C79.4478 68.0995 78.9977 68.3695 78.6165 68.7505C77.3075 70.0594 77.3075 72.1816 78.6165 73.4905C78.9977 73.8717 79.4478 74.1415 79.9266 74.3007C78.7609 74.6883 77.4244 74.4183 76.4966 73.4905C75.1876 72.1816 75.1876 70.0594 76.4966 68.7505C77.4244 67.8227 78.7607 67.5529 79.9266 67.9403Z" fill="url(#paint20_linear_75_632)"/>
<path d="M76.4966 68.7507C75.1876 70.0597 75.1876 72.1818 76.4966 73.4908C77.8056 74.7998 79.9277 74.7998 81.2367 73.4908C82.5457 72.1818 82.5457 70.0597 81.2367 68.7507C79.9277 67.4417 77.8056 67.4417 76.4966 68.7507Z" fill="url(#paint21_linear_75_632)"/>
<path d="M26.5207 84.3709L33.705 88.9868L40.889 81.8027L29.8622 80.3063C29.5601 80.2654 29.2112 80.4025 28.9478 80.6659L26.6055 83.0082C26.1534 83.4604 26.1131 84.1089 26.5207 84.3709Z" fill="#CCA233"/>
<path d="M27.3062 82.3075L26.6056 83.008C26.1535 83.4602 26.113 84.1089 26.5208 84.3709L33.7051 88.9868L39.2474 83.4445L28.2205 81.9479C27.9185 81.9069 27.5696 82.0443 27.3062 82.3075Z" fill="#CCA233"/>
<path d="M41.2375 99.0877L36.6216 91.9034L43.8056 84.7194L45.302 95.7462C45.343 96.0482 45.2058 96.3974 44.9426 96.6605L42.6004 99.0028C42.148 99.455 41.4995 99.4953 41.2375 99.0877Z" fill="#CCA233"/>
<path d="M43.3009 98.302L42.6004 99.0026C42.1482 99.4547 41.4995 99.4952 41.2375 99.0874L36.6216 91.9031L42.1639 86.3608L43.6603 97.3877C43.7014 97.6897 43.5641 98.0389 43.3009 98.302Z" fill="#CCA233"/>
<path d="M33.7929 52.0133L56.6544 61.866L70.2705 48.2499L40.9146 44.6323C40.2154 44.5461 39.413 44.8659 38.8066 45.4725L33.7876 50.4914C33.2581 51.0207 33.2606 51.7838 33.7929 52.0133Z" fill="#CCA233"/>
<path d="M35.5717 48.7071L33.7876 50.4912C33.2578 51.0209 33.2603 51.784 33.7928 52.0133L56.6544 61.866L67.0357 51.4847L37.6797 47.8671C36.9805 47.7807 36.1783 48.1005 35.5717 48.7071Z" fill="#CCA233"/>
<path d="M48.6369 49.2172L37.6797 47.8668C36.9805 47.7806 36.1783 48.1004 35.5717 48.707L33.7876 50.4912C33.2578 51.0209 33.2603 51.784 33.7928 52.0133L42.2123 55.6418L48.6369 49.2172Z" fill="url(#paint22_linear_75_632)"/>
<path d="M33.7928 52.0133L56.6544 61.866L61.3367 57.1837L35.9918 48.2872L33.7878 50.4912C33.2581 51.0207 33.2606 51.7838 33.7928 52.0133Z" fill="#CCA233"/>
<path d="M73.5949 91.8154L63.7424 68.9538L77.3586 55.3377L80.9762 84.6937C81.0624 85.3929 80.7426 86.1953 80.136 86.8017L75.1173 91.8204C74.5875 92.3501 73.8244 92.3476 73.5949 91.8154Z" fill="#CCA233"/>
<path d="M76.9012 90.0365L75.117 91.8206C74.5873 92.3503 73.8242 92.3478 73.5949 91.8154L63.7424 68.9538L74.1237 58.5725L77.7414 87.9285C77.8276 88.6277 77.5078 89.4299 76.9012 90.0365Z" fill="#CCA233"/>
<path d="M76.3914 76.9712L77.7418 87.9284C77.828 88.6276 77.5082 89.4298 76.9016 90.0364L75.1174 91.8206C74.5877 92.3503 73.8246 92.3478 73.5953 91.8153L69.9668 83.3958L76.3914 76.9712Z" fill="url(#paint23_linear_75_632)"/>
<path d="M73.5949 91.8153L63.7424 68.9538L68.4247 64.2715L77.321 89.6166L75.117 91.8206C74.5875 92.3501 73.8244 92.3476 73.5949 91.8153Z" fill="#CCA233"/>
<path d="M73.3592 63.2814C57.3894 79.2512 34.6332 97.0679 31.5867 94.0214C28.5402 90.9749 46.3569 68.2189 62.3267 52.2489C78.2965 36.2791 86.3721 33.1428 89.4186 36.1893C92.4653 39.236 89.3292 47.3116 73.3592 63.2814Z" fill="url(#paint24_linear_75_632)"/>
<path d="M72.1758 62.8147C56.9857 78.0047 35.5896 95.2003 32.9989 92.6094C30.4082 90.0185 47.6038 68.6226 62.7936 53.4325C77.9837 38.2424 85.4161 35.0106 88.0068 37.6013C90.5977 40.1922 87.3656 47.6246 72.1758 62.8147Z" fill="url(#paint25_linear_75_632)"/>
<path d="M73.3592 63.2814C89.329 47.3114 92.4653 39.236 89.4188 36.1895L31.5867 94.0217C34.6334 97.0681 57.3894 79.2514 73.3592 63.2814Z" fill="url(#paint26_linear_75_632)"/>
<path d="M75.8167 42.113C74.8387 42.9646 73.8124 43.8815 72.7361 44.8666C72.4609 45.1186 72.4859 45.5096 72.7837 45.5632C74.6249 45.8949 76.2871 46.7014 77.597 48.0113C78.9069 49.3212 79.7134 50.9836 80.045 52.8246C80.0987 53.1223 80.4897 53.1474 80.7417 52.8721C81.7268 51.7958 82.6437 50.7696 83.4953 49.7915C84.0748 49.1258 84.3245 48.2883 84.1369 47.6123C83.7266 46.1355 82.9839 44.8029 81.8947 43.7136C80.8052 42.6241 79.4726 41.8815 77.9959 41.4714C77.32 41.2835 76.4825 41.5333 75.8167 42.113Z" fill="url(#paint27_linear_75_632)"/>
<path d="M83.4946 49.7913C82.7462 50.6534 81.9456 51.5518 81.0927 52.4889C80.9767 52.6163 80.8607 52.7436 80.7424 52.8733C80.4899 53.1485 80.0987 53.1235 80.0441 52.8255C79.7143 50.9832 78.9069 49.3205 77.5967 48.0104C77.5194 47.933 77.4421 47.858 77.3625 47.7875C76.4322 46.9254 75.3404 46.3022 74.144 45.9065C75.2199 44.9261 76.2411 44.0118 77.2169 43.1634C77.8833 42.5834 78.7204 42.3332 79.3959 42.522C80.1988 42.7449 80.9585 43.0656 81.6613 43.4886C81.7409 43.5614 81.8182 43.6365 81.8956 43.7138C82.9851 44.8033 83.7266 46.1362 84.136 47.6123C84.3247 48.2879 84.0746 49.1249 83.4946 49.7913Z" fill="url(#paint28_linear_75_632)"/>
<path d="M80.045 52.8246C80.0987 53.1223 80.4896 53.1473 80.7417 52.8721C81.7267 51.7958 82.6436 50.7695 83.4952 49.7915C84.0747 49.1258 84.3245 48.2883 84.1368 47.6123C83.7265 46.1355 82.9839 44.8028 81.8946 43.7136L77.5969 48.0112C78.9068 49.3211 79.7134 50.9836 80.045 52.8246Z" fill="url(#paint29_linear_75_632)"/>
<path d="M36.9535 89.1353L36.4729 88.6547C36.071 88.2528 36.2088 87.4802 36.7727 86.9755L45.0735 79.5446C45.4381 79.2182 45.9214 79.1666 46.1814 79.4268C46.4414 79.6868 46.39 80.1701 46.0634 80.5347L38.6325 88.8355C38.128 89.3992 37.3554 89.5372 36.9535 89.1353Z" fill="url(#paint30_linear_75_632)"/>
<path d="M7.76797 106.118C7.29078 106.118 6.83155 106.089 6.39371 106.031C5.778 105.95 5.3745 105.346 5.54054 104.748L5.9959 103.104C6.12737 102.63 6.57817 102.315 7.06787 102.363C7.98769 102.453 9.12858 102.354 10.4394 102.067C10.9693 101.951 11.4979 102.272 11.639 102.796L12.0777 104.426C12.2294 104.989 11.8757 105.56 11.3057 105.687C10.0181 105.973 8.83176 106.118 7.76797 106.118ZM15.9298 103.121L15.2986 101.558C15.0912 101.045 15.3316 100.462 15.8404 100.243C16.9845 99.7504 18.1957 99.1748 19.459 98.5233C19.9534 98.2684 20.5623 98.4571 20.8241 98.9482L21.617 100.435C21.8845 100.937 21.6882 101.561 21.183 101.821C19.8226 102.523 18.5139 103.145 17.2731 103.678C16.7493 103.903 16.1436 103.65 15.9298 103.121ZM2.14129 101.818C1.5647 102.062 0.901678 101.735 0.754063 101.126C0.585294 100.429 0.5 99.6676 0.5 98.85C0.5 97.9897 0.594392 97.0483 0.781584 96.0412C0.888259 95.4666 1.45211 95.0954 2.02051 95.2305L3.6618 95.6208C4.18607 95.7455 4.52406 96.2591 4.42762 96.7892C4.2907 97.5435 4.22155 98.2336 4.22155 98.8495C4.22155 99.278 4.25499 99.6688 4.32072 100.019C4.40966 100.491 4.16242 100.961 3.71957 101.149L2.14129 101.818ZM25.1097 98.4687L24.2509 97.019C23.9668 96.5393 24.1199 95.9204 24.5966 95.6315C25.7211 94.9503 26.8802 94.2193 28.0596 93.4475C28.5267 93.1418 29.1536 93.2717 29.4629 93.7364L30.3964 95.1393C30.7103 95.6111 30.5777 96.2472 30.1037 96.5575C28.8827 97.3565 27.6813 98.1142 26.5147 98.8206C26.0296 99.1145 25.3988 98.9569 25.1097 98.4687ZM35.1176 93.123C34.657 93.4519 34.0169 93.3452 33.691 92.8825L35.1176 93.123ZM4.81338 91.9459L3.24056 91.3407C2.70741 91.1355 2.44471 90.533 2.66238 90.0048C3.17642 88.7577 3.78325 87.4385 4.47516 86.0642C4.73082 85.5564 5.35358 85.3537 5.85784 85.6169L7.35196 86.3961C7.84508 86.6534 8.03955 87.2597 7.78958 87.7565C7.15067 89.0263 6.59159 90.2405 6.11895 91.3839C5.90765 91.8954 5.32969 92.1447 4.81338 91.9459ZM9.25231 82.9568L7.79663 82.1082C7.30715 81.823 7.14384 81.1938 7.43384 80.7073C7.44317 80.6919 7.45249 80.6762 7.46159 80.6607C7.75182 80.1744 8.38413 80.0175 8.86747 80.3125L10.3059 81.1902C10.7826 81.4811 10.9352 82.1023 10.6489 82.582C10.6455 82.5879 10.6418 82.5936 10.6384 82.5995C10.3525 83.079 9.73474 83.2379 9.25231 82.9568ZM91.1474 35.2967L89.767 34.3305C89.3092 34.01 89.1945 33.3798 89.5118 32.9199C90.3095 31.7637 91.0733 30.6215 91.7936 29.5076C92.0968 29.0389 92.7211 28.9042 93.1924 29.2033L94.6149 30.1065C95.093 30.4102 95.2315 31.0445 94.9238 31.5201C94.1807 32.6694 93.3933 33.847 92.5713 35.0383C92.2499 35.5044 91.6112 35.6213 91.1474 35.2967ZM96.6993 26.6911L95.2449 25.84C94.7641 25.5586 94.5988 24.9416 94.8749 24.4578C95.5775 23.2264 96.22 22.0322 96.7948 20.8902C97.0445 20.3939 97.645 20.1915 98.1454 20.4333L99.6627 21.1666C100.175 21.4143 100.386 22.032 100.131 22.5406C99.5219 23.7511 98.8425 25.0144 98.1006 26.3142C97.8188 26.8071 97.1892 26.9777 96.6993 26.6911ZM101.279 17.4694L99.7084 16.8577C99.1928 16.6569 98.9356 16.081 99.1221 15.5601C99.5995 14.227 99.9409 13.0086 100.143 11.9193C100.24 11.3939 100.729 11.037 101.26 11.0989L102.937 11.295C103.519 11.363 103.926 11.9064 103.822 12.4829C103.583 13.8154 103.176 15.2824 102.608 16.8657C102.414 17.4043 101.811 17.677 101.279 17.4694ZM87.4118 7.89935L86.7144 6.36474C86.479 5.8466 86.7142 5.23362 87.2368 5.00822C88.705 4.37545 90.0916 3.86073 91.3785 3.46997C91.9333 3.30166 92.5164 3.62464 92.6636 4.18553L93.0912 5.81658C93.2293 6.34359 92.9297 6.88719 92.4086 7.04641C91.2789 7.39145 90.052 7.8484 88.7428 8.41157C88.2335 8.6306 87.641 8.40406 87.4118 7.89935ZM100.888 7.63869C100.473 7.79836 99.9937 7.67713 99.7262 7.32185C99.6645 7.23974 99.5979 7.16309 99.5262 7.09144C98.9758 6.54124 98.0665 6.26148 96.823 6.25966H96.788V2.53833V4.39911L96.79 3.60576C96.7916 3.00665 97.3091 2.53219 97.9052 2.59292C99.673 2.77306 101.096 3.399 102.158 4.45984C102.481 4.78304 102.766 5.14378 103.01 5.53841C103.343 6.07792 103.095 6.78962 102.503 7.01729L100.888 7.63869Z" fill="#CCA233"/>
<path d="M38.1535 21.0604C39.9089 21.0604 41.3319 19.6373 41.3319 17.882C41.3319 16.1266 39.9089 14.7036 38.1535 14.7036C36.3981 14.7036 34.9751 16.1266 34.9751 17.882C34.9751 19.6373 36.3981 21.0604 38.1535 21.0604Z" fill="url(#paint31_linear_75_632)"/>
<path d="M21.2197 44.5881C22.975 44.5881 24.3981 43.1651 24.3981 41.4097C24.3981 39.6543 22.975 38.2313 21.2197 38.2313C19.4643 38.2313 18.0413 39.6543 18.0413 41.4097C18.0413 43.1651 19.4643 44.5881 21.2197 44.5881Z" fill="url(#paint32_linear_75_632)"/>
<path d="M107.883 52.7175C109.639 52.7175 111.062 51.2944 111.062 49.5391C111.062 47.7837 109.639 46.3607 107.883 46.3607C106.128 46.3607 104.705 47.7837 104.705 49.5391C104.705 51.2944 106.128 52.7175 107.883 52.7175Z" fill="url(#paint33_linear_75_632)"/>
</g>
<defs>
<linearGradient id="paint0_linear_75_632" x1="35.3436" y1="32.3055" x2="101.615" y2="98.5768" gradientUnits="userSpaceOnUse">
<stop stop-color="#00AEFC"/>
<stop offset="1" stop-color="#3F3CEE"/>
</linearGradient>
<linearGradient id="paint1_linear_75_632" x1="70.179" y1="118.982" x2="50.5045" y2="-22.7399" gradientUnits="userSpaceOnUse">
<stop stop-color="#00AEFC" stop-opacity="0"/>
<stop offset="1" stop-color="#18CFFC"/>
</linearGradient>
<linearGradient id="paint2_linear_75_632" x1="44.6451" y1="36.8666" x2="130.795" y2="97.9941" gradientUnits="userSpaceOnUse">
<stop stop-color="#E5F3FF"/>
<stop offset="1" stop-color="#B3CCFF"/>
</linearGradient>
<linearGradient id="paint3_linear_75_632" x1="91.6725" y1="63.4476" x2="130.279" y2="70.2396" gradientUnits="userSpaceOnUse">
<stop stop-color="#E5F3FF"/>
<stop offset="1" stop-color="#B3CCFF"/>
</linearGradient>
<linearGradient id="paint4_linear_75_632" x1="79.8761" y1="47.9767" x2="120.067" y2="-30.5437" gradientUnits="userSpaceOnUse">
<stop stop-color="#3F3CEE" stop-opacity="0"/>
<stop offset="1" stop-color="#2F43BC"/>
</linearGradient>
<linearGradient id="paint5_linear_75_632" x1="85.6646" y1="90.2675" x2="57.8374" y2="62.4403" gradientUnits="userSpaceOnUse">
<stop stop-color="#3F3CEE" stop-opacity="0"/>
<stop offset="1" stop-color="#2F43BC"/>
</linearGradient>
<linearGradient id="paint6_linear_75_632" x1="47.1235" y1="44.0347" x2="47.1235" y2="50.173" gradientUnits="userSpaceOnUse">
<stop stop-color="#F9F7FC"/>
<stop offset="1" stop-color="#F0DDFC"/>
</linearGradient>
<linearGradient id="paint7_linear_75_632" x1="47.1238" y1="47.3564" x2="47.1238" y2="43.0674" gradientUnits="userSpaceOnUse">
<stop stop-color="#E9EDF5" stop-opacity="0"/>
<stop offset="1" stop-color="white"/>
</linearGradient>
<linearGradient id="paint8_linear_75_632" x1="46.2978" y1="46.7985" x2="55.6133" y2="43.9977" gradientUnits="userSpaceOnUse">
<stop stop-color="#F0DDFC" stop-opacity="0"/>
<stop offset="0.2889" stop-color="#C8B7E0" stop-opacity="0.289"/>
<stop offset="0.5915" stop-color="#A595C8" stop-opacity="0.592"/>
<stop offset="0.8395" stop-color="#8F81B8" stop-opacity="0.84"/>
<stop offset="1" stop-color="#8779B3"/>
</linearGradient>
<linearGradient id="paint9_linear_75_632" x1="47.4268" y1="44.1128" x2="46.8778" y2="47.1826" gradientUnits="userSpaceOnUse">
<stop stop-color="#F0DDFC" stop-opacity="0"/>
<stop offset="0.2889" stop-color="#C8B7E0" stop-opacity="0.289"/>
<stop offset="0.5915" stop-color="#A595C8" stop-opacity="0.592"/>
<stop offset="0.8395" stop-color="#8F81B8" stop-opacity="0.84"/>
<stop offset="1" stop-color="#8779B3"/>
</linearGradient>
<linearGradient id="paint10_linear_75_632" x1="54.5228" y1="44.9392" x2="54.5227" y2="51.0774" gradientUnits="userSpaceOnUse">
<stop stop-color="#F9F7FC"/>
<stop offset="1" stop-color="#F0DDFC"/>
</linearGradient>
<linearGradient id="paint11_linear_75_632" x1="54.5229" y1="48.2609" x2="54.5228" y2="43.972" gradientUnits="userSpaceOnUse">
<stop stop-color="#E9EDF5" stop-opacity="0"/>
<stop offset="1" stop-color="white"/>
</linearGradient>
<linearGradient id="paint12_linear_75_632" x1="53.6969" y1="47.7028" x2="63.0122" y2="44.9022" gradientUnits="userSpaceOnUse">
<stop stop-color="#F0DDFC" stop-opacity="0"/>
<stop offset="0.2889" stop-color="#C8B7E0" stop-opacity="0.289"/>
<stop offset="0.5915" stop-color="#A595C8" stop-opacity="0.592"/>
<stop offset="0.8395" stop-color="#8F81B8" stop-opacity="0.84"/>
<stop offset="1" stop-color="#8779B3"/>
</linearGradient>
<linearGradient id="paint13_linear_75_632" x1="54.826" y1="45.0172" x2="54.2768" y2="48.0871" gradientUnits="userSpaceOnUse">
<stop stop-color="#F0DDFC" stop-opacity="0"/>
<stop offset="0.2889" stop-color="#C8B7E0" stop-opacity="0.289"/>
<stop offset="0.5915" stop-color="#A595C8" stop-opacity="0.592"/>
<stop offset="0.8395" stop-color="#8F81B8" stop-opacity="0.84"/>
<stop offset="1" stop-color="#8779B3"/>
</linearGradient>
<linearGradient id="paint14_linear_75_632" x1="81.5812" y1="78.4923" x2="75.443" y2="78.4925" gradientUnits="userSpaceOnUse">
<stop stop-color="#F9F7FC"/>
<stop offset="1" stop-color="#F0DDFC"/>
</linearGradient>
<linearGradient id="paint15_linear_75_632" x1="78.2597" y1="78.4924" x2="82.5488" y2="78.4924" gradientUnits="userSpaceOnUse">
<stop stop-color="#E9EDF5" stop-opacity="0"/>
<stop offset="1" stop-color="white"/>
</linearGradient>
<linearGradient id="paint16_linear_75_632" x1="78.8176" y1="79.3183" x2="81.6184" y2="70.0028" gradientUnits="userSpaceOnUse">
<stop stop-color="#F0DDFC" stop-opacity="0"/>
<stop offset="0.2889" stop-color="#C8B7E0" stop-opacity="0.289"/>
<stop offset="0.5915" stop-color="#A595C8" stop-opacity="0.592"/>
<stop offset="0.8395" stop-color="#8F81B8" stop-opacity="0.84"/>
<stop offset="1" stop-color="#8779B3"/>
</linearGradient>
<linearGradient id="paint17_linear_75_632" x1="81.5032" y1="78.1892" x2="78.4334" y2="78.7382" gradientUnits="userSpaceOnUse">
<stop stop-color="#F0DDFC" stop-opacity="0"/>
<stop offset="0.2889" stop-color="#C8B7E0" stop-opacity="0.289"/>
<stop offset="0.5915" stop-color="#A595C8" stop-opacity="0.592"/>
<stop offset="0.8395" stop-color="#8F81B8" stop-opacity="0.84"/>
<stop offset="1" stop-color="#8779B3"/>
</linearGradient>
<linearGradient id="paint18_linear_75_632" x1="80.6769" y1="71.0933" x2="74.5386" y2="71.0933" gradientUnits="userSpaceOnUse">
<stop stop-color="#F9F7FC"/>
<stop offset="1" stop-color="#F0DDFC"/>
</linearGradient>
<linearGradient id="paint19_linear_75_632" x1="77.3554" y1="71.0932" x2="81.6443" y2="71.0934" gradientUnits="userSpaceOnUse">
<stop stop-color="#E9EDF5" stop-opacity="0"/>
<stop offset="1" stop-color="white"/>
</linearGradient>
<linearGradient id="paint20_linear_75_632" x1="77.9133" y1="71.9191" x2="80.7139" y2="62.6039" gradientUnits="userSpaceOnUse">
<stop stop-color="#F0DDFC" stop-opacity="0"/>
<stop offset="0.2889" stop-color="#C8B7E0" stop-opacity="0.289"/>
<stop offset="0.5915" stop-color="#A595C8" stop-opacity="0.592"/>
<stop offset="0.8395" stop-color="#8F81B8" stop-opacity="0.84"/>
<stop offset="1" stop-color="#8779B3"/>
</linearGradient>
<linearGradient id="paint21_linear_75_632" x1="80.5989" y1="70.7901" x2="77.5288" y2="71.3391" gradientUnits="userSpaceOnUse">
<stop stop-color="#F0DDFC" stop-opacity="0"/>
<stop offset="0.2889" stop-color="#C8B7E0" stop-opacity="0.289"/>
<stop offset="0.5915" stop-color="#A595C8" stop-opacity="0.592"/>
<stop offset="0.8395" stop-color="#8F81B8" stop-opacity="0.84"/>
<stop offset="1" stop-color="#8779B3"/>
</linearGradient>
<linearGradient id="paint22_linear_75_632" x1="42.5094" y1="52.2251" x2="50.6207" y2="62.3976" gradientUnits="userSpaceOnUse">
<stop stop-color="#F0DDFC" stop-opacity="0"/>
<stop offset="0.2889" stop-color="#C8B7E0" stop-opacity="0.289"/>
<stop offset="0.5915" stop-color="#A595C8" stop-opacity="0.592"/>
<stop offset="0.8395" stop-color="#8F81B8" stop-opacity="0.84"/>
<stop offset="1" stop-color="#8779B3"/>
</linearGradient>
<linearGradient id="paint23_linear_75_632" x1="74.3453" y1="83.8675" x2="64.1729" y2="75.7563" gradientUnits="userSpaceOnUse">
<stop stop-color="#FFDA45" stop-opacity="0"/>
<stop offset="1" stop-color="#B53759"/>
</linearGradient>
<linearGradient id="paint24_linear_75_632" x1="58.27" y1="62.879" x2="65.1733" y2="69.7823" gradientUnits="userSpaceOnUse">
<stop stop-color="#E5F3FF"/>
<stop offset="1" stop-color="#B3CCFF"/>
</linearGradient>
<linearGradient id="paint25_linear_75_632" x1="63.0535" y1="67.3859" x2="53.2306" y2="58.6153" gradientUnits="userSpaceOnUse">
<stop stop-color="#E5F3FF" stop-opacity="0"/>
<stop offset="1" stop-color="white"/>
</linearGradient>
<linearGradient id="paint26_linear_75_632" x1="60.0121" y1="73.9874" x2="75.2976" y2="-32.7146" gradientUnits="userSpaceOnUse">
<stop stop-color="#B3CCFF" stop-opacity="0"/>
<stop offset="1" stop-color="#9FB0CB"/>
</linearGradient>
<linearGradient id="paint27_linear_75_632" x1="76.3774" y1="42.9486" x2="82.3892" y2="52.3956" gradientUnits="userSpaceOnUse">
<stop stop-color="#8B788A"/>
<stop offset="1" stop-color="#6E566E"/>
</linearGradient>
<linearGradient id="paint28_linear_75_632" x1="79.4116" y1="47.699" x2="77.8194" y2="42.1833" gradientUnits="userSpaceOnUse">
<stop stop-color="#8B788A" stop-opacity="0"/>
<stop offset="1" stop-color="#9E8C92"/>
</linearGradient>
<linearGradient id="paint29_linear_75_632" x1="80.646" y1="48.9481" x2="84.4243" y2="39.2254" gradientUnits="userSpaceOnUse">
<stop stop-color="#555A66" stop-opacity="0"/>
<stop offset="1" stop-color="#555A66"/>
</linearGradient>
<linearGradient id="paint30_linear_75_632" x1="41.2638" y1="83.978" x2="42.0823" y2="84.7965" gradientUnits="userSpaceOnUse">
<stop stop-color="#E5F3FF"/>
<stop offset="1" stop-color="#B3CCFF"/>
</linearGradient>
<linearGradient id="paint31_linear_75_632" x1="37.9072" y1="17.6359" x2="41.4081" y2="21.1365" gradientUnits="userSpaceOnUse">
<stop stop-color="#FF7044"/>
<stop offset="1" stop-color="#F92814"/>
</linearGradient>
<linearGradient id="paint32_linear_75_632" x1="19.8752" y1="40.0653" x2="23.6932" y2="43.8835" gradientUnits="userSpaceOnUse">
<stop stop-color="#92F37F"/>
<stop offset="1" stop-color="#4AB272"/>
</linearGradient>
<linearGradient id="paint33_linear_75_632" x1="105.921" y1="47.5773" x2="111.399" y2="53.055" gradientUnits="userSpaceOnUse">
<stop stop-color="#92F37F"/>
<stop offset="1" stop-color="#4AB272"/>
</linearGradient>
<clipPath id="clip0_75_632">
<rect width="116" height="116" fill="white" transform="translate(0.5)"/>
</clipPath>
</defs>
</svg>
